<svg width="17" height="19" viewBox="0 0 17 19" fill="none" xmlns="http://www.w3.org/2000/svg">
<g id="Group 649">
<path id="Vector" d="M1 16.1111V4.02222C1 2.96435 1 2.4354 1.20437 2.03135C1.38412 1.67593 1.67096 1.38697 2.02377 1.20588C2.42485 1 2.94991 1 4 1H13C14.0501 1 14.5752 1 14.9763 1.20588C15.329 1.38697 15.6159 1.67593 15.7956 2.03135C16 2.4354 16 2.96435 16 4.02222V14.2222H2.875C1.83947 14.2222 1 15.0679 1 16.1111ZM1 16.1111C1 17.1543 1.83947 18 2.875 18H16M5.6875 4.77778H11.3125M5.6875 8.55556H11.3125M15.0625 14.2222V18" stroke="black" stroke-width="2" stroke-linecap="round" stroke-linejoin="round"/>
</g>
</svg>
