<svg width="14" height="14" viewBox="0 0 14 14" fill="none" xmlns="http://www.w3.org/2000/svg">
<path d="M12.25 11.0026V10.3333C12.25 9.59693 11.5784 9 10.75 9C9.92155 9 9.25 9.59693 9.25 10.3333V11.0026M5.5 13H2.2C1.77996 13 1.56994 13 1.40951 12.9273C1.26839 12.8634 1.15365 12.7615 1.08174 12.636C1 12.4934 1 12.3067 1 11.9333V10.7894C1 10.3657 1 10.1537 1.03598 9.97707C1.20315 9.15627 1.92581 8.51393 2.84918 8.36533C2.90687 8.35607 2.96778 8.34947 3.03681 8.3448C3.20559 8.33333 3.28998 8.3276 3.40271 8.33507C3.51987 8.34287 3.5854 8.35313 3.69848 8.38147C3.80727 8.40873 4.00322 8.48767 4.39512 8.64547C4.9607 8.8732 5.58873 9 6.25 9C6.3763 9 6.50132 8.9954 6.625 8.98633M9.625 13H11.875C12.2244 13 12.3992 13 12.537 12.9493C12.7208 12.8816 12.8668 12.7518 12.9429 12.5885C13 12.4659 13 12.3106 13 12C13 11.6894 13 11.5341 12.9429 11.4115C12.8668 11.2482 12.7208 11.1184 12.537 11.0507C12.3992 11 12.2244 11 11.875 11H9.625C9.27557 11 9.10083 11 8.96298 11.0507C8.77923 11.1184 8.6332 11.2482 8.55708 11.4115C8.5 11.5341 8.5 11.6894 8.5 12C8.5 12.3106 8.5 12.4659 8.55708 12.5885C8.6332 12.7518 8.77923 12.8816 8.96298 12.9493C9.10083 13 9.27557 13 9.625 13ZM9.25 3.66667C9.25 5.13943 7.90683 6.33333 6.25 6.33333C4.59314 6.33333 3.25 5.13943 3.25 3.66667C3.25 2.19391 4.59314 1 6.25 1C7.90683 1 9.25 2.19391 9.25 3.66667Z" stroke="#AC2929" stroke-linecap="round" stroke-linejoin="round"/>
</svg>
