<svg width="24" height="24" viewBox="0 0 24 24" fill="none" xmlns="http://www.w3.org/2000/svg">
<path d="M4.66667 10.9255H5.88889M4.66667 16.0095H5.88889M18.1111 16.0095H19.3333M18.1111 10.9255H19.3333M11.3889 10.9255H12.6111M9.55556 23V17.916C9.55556 16.5122 10.6499 15.374 12 15.374C13.3501 15.374 14.4444 16.5122 14.4444 17.916V23M18.1111 5.84158L20.0375 6.3424C21.0968 6.61777 21.6263 6.75547 22.0208 7.06253C22.3686 7.33346 22.6408 7.69597 22.8092 8.11269C23 8.58501 23 9.15273 23 10.2881V18.9328C23 20.3566 23 21.0683 22.7336 21.6121C22.4993 22.0905 22.1253 22.4793 21.6653 22.723C21.1425 23 20.4579 23 19.0889 23H4.91111C3.5421 23 2.85758 23 2.33469 22.723C1.87473 22.4793 1.50078 22.0905 1.26643 21.6121C1 21.0683 1 20.3566 1 18.9328V10.2881C1 9.15273 1 8.58501 1.19083 8.11269C1.35919 7.69597 1.63136 7.33346 1.97929 7.06253C2.37364 6.75547 2.90327 6.61777 3.96252 6.3424L5.88889 5.84158L9.3836 2.57082C10.3083 1.70531 10.7708 1.27256 11.2937 1.10842C11.7543 0.963859 12.2457 0.963859 12.7063 1.10842C13.2292 1.27256 13.6917 1.70531 14.6164 2.57082L18.1111 5.84158Z" stroke="black" stroke-width="2" stroke-linecap="round" stroke-linejoin="round"/>
</svg>
