<svg width="18" height="17" viewBox="0 0 18 17" fill="none" xmlns="http://www.w3.org/2000/svg">
<path d="M15.2154 6.42505H8.5027C7.67885 6.42505 7.01099 7.02946 7.01099 7.77505V13.85C7.01099 14.5956 7.67885 15.2 8.5027 15.2H15.2154C16.0393 15.2 16.7071 14.5956 16.7071 13.85V7.77505C16.7071 7.02946 16.0393 6.42505 15.2154 6.42505Z" stroke="white" stroke-width="2" stroke-linecap="round" stroke-linejoin="round"/>
<path d="M4.02761 10.475H3.28175C2.88612 10.475 2.5067 10.3327 2.22695 10.0795C1.9472 9.82637 1.79004 9.48299 1.79004 9.12495V3.04995C1.79004 2.69191 1.9472 2.34853 2.22695 2.09536C2.5067 1.84218 2.88612 1.69995 3.28175 1.69995H9.99446C10.3901 1.69995 10.7695 1.84218 11.0493 2.09536C11.329 2.34853 11.4862 2.69191 11.4862 3.04995V3.72495" stroke="white" stroke-width="2" stroke-linecap="round" stroke-linejoin="round"/>
</svg>
