<svg width="17" height="17" viewBox="0 0 17 17" fill="none" xmlns="http://www.w3.org/2000/svg">
<path d="M14.5001 6.25H7.75001C6.92158 6.25 6.25 6.92158 6.25 7.75001V14.5001C6.25 15.3285 6.92158 16.0001 7.75001 16.0001H14.5001C15.3285 16.0001 16.0001 15.3285 16.0001 14.5001V7.75001C16.0001 6.92158 15.3285 6.25 14.5001 6.25Z" stroke="#AC2929" stroke-width="1.5" stroke-linecap="round" stroke-linejoin="round"/>
<path d="M3.25002 10.7501H2.50001C2.10218 10.7501 1.72065 10.592 1.43934 10.3107C1.15804 10.0294 1 9.64788 1 9.25005V2.50001C1 2.10218 1.15804 1.72065 1.43934 1.43934C1.72065 1.15804 2.10218 1 2.50001 1H9.25006C9.64789 1 10.0294 1.15804 10.3107 1.43934C10.592 1.72065 10.7501 2.10218 10.7501 2.50001V3.25001" stroke="#AC2929" stroke-width="1.5" stroke-linecap="round" stroke-linejoin="round"/>
</svg>
