<svg width="13" height="14" viewBox="0 0 13 14" fill="none" xmlns="http://www.w3.org/2000/svg">
<path d="M4.14286 3.66667H3.51429C2.63421 3.66667 2.19416 3.66667 1.85802 3.81199C1.56233 3.93982 1.32193 4.14379 1.17128 4.39468C1 4.67989 1 5.05327 1 5.8V10.8667C1 11.6134 1 11.9868 1.17128 12.272C1.32193 12.5229 1.56233 12.7269 1.85802 12.8547C2.19416 13 2.63421 13 3.51429 13H6.34286C7.22294 13 7.66301 13 7.99914 12.8547C8.29481 12.7269 8.53524 12.5229 8.68586 12.272C8.85714 11.9868 8.85714 11.6134 8.85714 10.8667V10.3333M12 4.33333V8.2C12 8.94673 12 9.32013 11.8287 9.60533C11.6781 9.8562 11.4377 10.0602 11.142 10.188C10.8059 10.3333 10.3658 10.3333 9.48571 10.3333H6.65714C5.77706 10.3333 5.33699 10.3333 5.00086 10.188C4.70518 10.0602 4.46479 9.8562 4.31413 9.60533C4.14286 9.32013 4.14286 8.94673 4.14286 8.2V3.13333C4.14286 2.3866 4.14286 2.01323 4.31413 1.72801C4.46479 1.47713 4.70518 1.27315 5.00086 1.14533C5.33699 1 5.77706 1 6.65714 1H8.07143M12 4.33333L8.07143 1M12 4.33333H9.32857C8.88849 4.33333 8.66849 4.33333 8.50043 4.26067C8.35256 4.19675 8.23242 4.09477 8.15707 3.96933C8.07143 3.82672 8.07143 3.64003 8.07143 3.26667V1" stroke="#AC2929" stroke-linecap="round" stroke-linejoin="round"/>
</svg>
