<svg width="24" height="24" viewBox="0 0 24 24" fill="none" xmlns="http://www.w3.org/2000/svg">
<path d="M7.28571 5.88889H6.02857C4.26841 5.88889 3.38832 5.88889 2.71603 6.15532C2.12466 6.38967 1.64386 6.76362 1.34256 7.22358C1 7.74647 1 8.43099 1 9.8V19.0889C1 20.4579 1 21.1425 1.34256 21.6653C1.64386 22.1253 2.12466 22.4993 2.71603 22.7336C3.38832 23 4.26841 23 6.02857 23H11.6857C13.4459 23 14.326 23 14.9983 22.7336C15.5896 22.4993 16.0705 22.1253 16.3717 21.6653C16.7143 21.1425 16.7143 20.4579 16.7143 19.0889V18.1111M23 7.11111V14.2C23 15.569 23 16.2536 22.6574 16.7764C22.3562 17.2364 21.8753 17.6104 21.284 17.8447C20.6117 18.1111 19.7316 18.1111 17.9714 18.1111H12.3143C10.5541 18.1111 9.67397 18.1111 9.00171 17.8447C8.41037 17.6104 7.92958 17.2364 7.62827 16.7764C7.28571 16.2536 7.28571 15.569 7.28571 14.2V4.91111C7.28571 3.5421 7.28571 2.85758 7.62827 2.33469C7.92958 1.87473 8.41037 1.50078 9.00171 1.26643C9.67397 1 10.5541 1 12.3143 1H15.1429M23 7.11111L15.1429 1M23 7.11111H17.6571C16.777 7.11111 16.337 7.11111 16.0009 6.9779C15.7051 6.86071 15.4648 6.67374 15.3141 6.44377C15.1429 6.18232 15.1429 5.84006 15.1429 5.15556V1" stroke="black" stroke-width="2" stroke-linecap="round" stroke-linejoin="round"/>
</svg>
