<svg width="14" height="14" viewBox="0 0 14 14" fill="none" xmlns="http://www.w3.org/2000/svg">
<path d="M1.04004 3H13.04M10.04 3L9.83709 2.45871C9.64036 1.93417 9.54196 1.67189 9.35956 1.47799C9.19846 1.30675 8.99161 1.17421 8.75791 1.09252C8.49324 1 8.18229 1 7.56024 1H6.51984C5.89779 1 5.58684 1 5.32217 1.09252C5.08848 1.17421 4.8816 1.30675 4.72051 1.47799C4.53808 1.67189 4.43973 1.93417 4.24302 2.45871L4.04004 3M11.54 3V9.8C11.54 10.9201 11.54 11.4801 11.2948 11.908C11.0791 12.2843 10.7349 12.5903 10.3115 12.782C9.83019 13 9.20019 13 7.94004 13H6.14004C4.87992 13 4.24986 13 3.76856 12.782C3.34519 12.5903 3.00099 12.2843 2.78527 11.908C2.54004 11.4801 2.54004 10.9201 2.54004 9.8V3M8.54004 5.66667V10.3333M5.54004 5.66667V10.3333" stroke="#AC2929" stroke-linecap="round" stroke-linejoin="round"/>
</svg>
