<svg width="13" height="13" viewBox="0 0 13 13" fill="none" xmlns="http://www.w3.org/2000/svg">
<path d="M9.11792 1.50136C9.27687 1.34241 9.46557 1.21632 9.67324 1.1303C9.88092 1.04428 10.1035 1 10.3283 1C10.5531 1 10.7757 1.04428 10.9834 1.1303C11.191 1.21632 11.3797 1.34241 11.5387 1.50136C11.6976 1.66031 11.8237 1.84901 11.9097 2.05669C11.9958 2.26436 12.04 2.48695 12.04 2.71174C12.04 2.93653 11.9958 3.15912 11.9097 3.3668C11.8237 3.57447 11.6976 3.76317 11.5387 3.92212L3.69003 11.7708C3.47939 11.9814 3.21743 12.1334 2.93003 12.2118V12.2118C1.65222 12.5603 0.479725 11.3878 0.828219 10.11V10.11C0.906599 9.82261 1.05862 9.56065 1.26926 9.35001L9.11792 1.50136Z" stroke="#AC2929" stroke-linecap="round" stroke-linejoin="round"/>
</svg>
