<svg width="17" height="17" viewBox="0 0 17 17" fill="none" xmlns="http://www.w3.org/2000/svg">
<path d="M5.88986 12.6667H2.93394C1.83845 12.6667 1.29071 12.6667 1.17547 12.5852C1.04599 12.4937 1.01436 12.4397 1.00034 12.2863C0.987861 12.1497 1.32357 11.6238 1.995 10.5722C2.68824 9.48625 3.27688 7.90517 3.27688 5.66667C3.27688 4.42899 3.82717 3.24201 4.80668 2.36683C5.78621 1.49167 7.11472 1 8.49998 1C9.88524 1 11.2137 1.49167 12.1932 2.36683C13.1728 3.24201 13.7231 4.42899 13.7231 5.66667C13.7231 7.90517 14.3117 9.48625 15.005 10.5722C15.6764 11.6238 16.0121 12.1497 15.9997 12.2863C15.9857 12.4397 15.954 12.4937 15.8245 12.5852C15.7093 12.6667 15.1615 12.6667 14.0661 12.6667H11.1115M5.88986 12.6667L5.88843 13.5C5.88843 14.8807 7.05771 16 8.49998 16C9.94234 16 11.1115 14.8807 11.1115 13.5V12.6667M5.88986 12.6667H11.1115" stroke="black" stroke-width="2" stroke-linecap="round" stroke-linejoin="round"/>
</svg>
