<svg width="18" height="18" viewBox="0 0 18 18" fill="none" xmlns="http://www.w3.org/2000/svg">
<path d="M17 1L9 9M17 1V5.5M17 1H12.5M16 9.5V13.8C16 14.9201 16 15.4802 15.782 15.908C15.5903 16.2843 15.2843 16.5903 14.908 16.782C14.4802 17 13.9201 17 12.8 17H4.2C3.0799 17 2.51984 17 2.09202 16.782C1.71569 16.5903 1.40973 16.2843 1.21799 15.908C1 15.4802 1 14.9201 1 13.8V5.2C1 4.0799 1 3.51984 1.21799 3.09202C1.40973 2.71569 1.71569 2.40973 2.09202 2.21799C2.51984 2 3.07989 2 4.2 2H8.5" stroke="#AC2929" stroke-width="2" stroke-linecap="round" stroke-linejoin="round"/>
</svg>
