<svg width="22" height="22" viewBox="0 0 22 22" fill="none" xmlns="http://www.w3.org/2000/svg">
<path d="M11.0002 13.727C12.5065 13.727 13.7275 12.506 13.7275 10.9997C13.7275 9.4935 12.5065 8.27246 11.0002 8.27246C9.49399 8.27246 8.27295 9.4935 8.27295 10.9997C8.27295 12.506 9.49399 13.727 11.0002 13.727Z" stroke="black" stroke-linecap="round" stroke-linejoin="round"/>
<path d="M17.7278 13.7273C17.6067 14.0015 17.5706 14.3056 17.6241 14.6005C17.6776 14.8954 17.8182 15.1676 18.0278 15.3818L18.0823 15.4364C18.2514 15.6052 18.3855 15.8057 18.477 16.0265C18.5685 16.2472 18.6156 16.4838 18.6156 16.7227C18.6156 16.9617 18.5685 17.1983 18.477 17.419C18.3855 17.6397 18.2514 17.8402 18.0823 18.0091C17.9134 18.1781 17.7129 18.3122 17.4922 18.4037C17.2715 18.4952 17.0349 18.5423 16.7959 18.5423C16.557 18.5423 16.3204 18.4952 16.0997 18.4037C15.879 18.3122 15.6784 18.1781 15.5096 18.0091L15.455 17.9545C15.2408 17.745 14.9687 17.6044 14.6738 17.5509C14.3788 17.4974 14.0747 17.5335 13.8005 17.6545C13.5316 17.7698 13.3023 17.9611 13.1408 18.205C12.9792 18.4489 12.8926 18.7347 12.8914 19.0273V19.1818C12.8914 19.664 12.6998 20.1265 12.3589 20.4675C12.0179 20.8084 11.5554 21 11.0732 21C10.591 21 10.1285 20.8084 9.78757 20.4675C9.44659 20.1265 9.25503 19.664 9.25503 19.1818V19.1C9.248 18.7991 9.1506 18.5073 8.9755 18.2625C8.8004 18.0176 8.5557 17.8312 8.27322 17.7273C7.99902 17.6063 7.69486 17.5702 7.39995 17.6236C7.10505 17.6771 6.83292 17.8177 6.61867 18.0273L6.56412 18.0818C6.39526 18.2509 6.19474 18.385 5.97402 18.4765C5.75329 18.568 5.5167 18.6151 5.27776 18.6151C5.03882 18.6151 4.80223 18.568 4.58151 18.4765C4.36078 18.385 4.16026 18.2509 3.9914 18.0818C3.82235 17.913 3.68824 17.7124 3.59674 17.4917C3.50524 17.271 3.45815 17.0344 3.45815 16.7955C3.45815 16.5565 3.50524 16.3199 3.59674 16.0992C3.68824 15.8785 3.82235 15.678 3.9914 15.5091L4.04594 15.4545C4.25552 15.2403 4.39611 14.9682 4.44958 14.6733C4.50306 14.3784 4.46696 14.0742 4.34594 13.8C4.2307 13.5311 4.03936 13.3018 3.79546 13.1403C3.55156 12.9788 3.26575 12.8921 2.97322 12.8909H2.81867C2.33646 12.8909 1.874 12.6994 1.53302 12.3584C1.19205 12.0174 1.00049 11.5549 1.00049 11.0727C1.00049 10.5905 1.19205 10.1281 1.53302 9.78708C1.874 9.4461 2.33646 9.25455 2.81867 9.25455H2.90049C3.20139 9.24751 3.49322 9.15011 3.73803 8.97501C3.98285 8.79991 4.16932 8.55521 4.27322 8.27273C4.39423 7.99853 4.43033 7.69437 4.37686 7.39947C4.32338 7.10456 4.18279 6.83244 3.97322 6.61818L3.91867 6.56364C3.74962 6.39478 3.61551 6.19425 3.52402 5.97353C3.43252 5.7528 3.38542 5.51621 3.38542 5.27727C3.38542 5.03834 3.43252 4.80174 3.52402 4.58102C3.61551 4.36029 3.74962 4.15977 3.91867 3.99091C4.08753 3.82186 4.28805 3.68775 4.50878 3.59626C4.7295 3.50476 4.9661 3.45766 5.20503 3.45766C5.44397 3.45766 5.68057 3.50476 5.90129 3.59626C6.12201 3.68775 6.32254 3.82186 6.4914 3.99091L6.54594 4.04545C6.7602 4.25503 7.03232 4.39562 7.32723 4.4491C7.62213 4.50257 7.92629 4.46647 8.20049 4.34545H8.27322C8.5421 4.23022 8.77141 4.03887 8.93294 3.79497C9.09446 3.55107 9.18114 3.26526 9.18231 2.97273V2.81818C9.18231 2.33597 9.37386 1.87351 9.71484 1.53253C10.0558 1.19156 10.5183 1 11.0005 1C11.4827 1 11.9452 1.19156 12.2861 1.53253C12.6271 1.87351 12.8187 2.33597 12.8187 2.81818V2.9C12.8198 3.19253 12.9065 3.47834 13.068 3.72224C13.2296 3.96614 13.4589 4.15749 13.7278 4.27273C14.002 4.39374 14.3061 4.42984 14.601 4.37637C14.8959 4.3229 15.1681 4.18231 15.3823 3.97273L15.4369 3.91818C15.6057 3.74913 15.8062 3.61503 16.027 3.52353C16.2477 3.43203 16.4843 3.38493 16.7232 3.38493C16.9622 3.38493 17.1987 3.43203 17.4195 3.52353C17.6402 3.61503 17.8407 3.74913 18.0096 3.91818C18.1786 4.08704 18.3127 4.28757 18.4042 4.50829C18.4957 4.72901 18.5428 4.96561 18.5428 5.20455C18.5428 5.44348 18.4957 5.68008 18.4042 5.9008C18.3127 6.12152 18.1786 6.32205 18.0096 6.49091L17.955 6.54545C17.7455 6.75971 17.6049 7.03183 17.5514 7.32674C17.4979 7.62164 17.534 7.9258 17.655 8.2V8.27273C17.7703 8.54161 17.9616 8.77092 18.2055 8.93245C18.4494 9.09397 18.7352 9.18065 19.0278 9.18182H19.1823C19.6645 9.18182 20.127 9.37338 20.468 9.71435C20.8089 10.0553 21.0005 10.5178 21.0005 11C21.0005 11.4822 20.8089 11.9447 20.468 12.2856C20.127 12.6266 19.6645 12.8182 19.1823 12.8182H19.1005C18.808 12.8193 18.5221 12.906 18.2782 13.0676C18.0343 13.2291 17.843 13.4584 17.7278 13.7273Z" stroke="black" stroke-linecap="round" stroke-linejoin="round"/>
</svg>
