<svg width="27" height="27" viewBox="0 0 27 27" fill="none" xmlns="http://www.w3.org/2000/svg">
<path d="M5.6875 26C5.6875 21.6853 9.18528 18.1875 13.5 18.1875C17.8147 18.1875 21.3125 21.6853 21.3125 26M6 26H21C22.7502 26 23.6253 26 24.2938 25.6594C24.8817 25.3598 25.3598 24.8817 25.6594 24.2938C26 23.6253 26 22.7502 26 21V6C26 4.24984 26 3.37475 25.6594 2.70628C25.3598 2.11827 24.8817 1.6402 24.2938 1.34061C23.6253 1 22.7502 1 21 1H6C4.24984 1 3.37475 1 2.70628 1.34061C2.11827 1.6402 1.6402 2.11827 1.34061 2.70628C1 3.37475 1 4.24983 1 6V21C1 22.7502 1 23.6253 1.34061 24.2938C1.6402 24.8817 2.11827 25.3598 2.70628 25.6594C3.37475 26 4.24983 26 6 26ZM16.625 10.375C16.625 12.1009 15.2259 13.5 13.5 13.5C11.7741 13.5 10.375 12.1009 10.375 10.375C10.375 8.64911 11.7741 7.25 13.5 7.25C15.2259 7.25 16.625 8.64911 16.625 10.375Z" stroke="black" stroke-width="2" stroke-linecap="round" stroke-linejoin="round"/>
</svg>
