<svg width="24" height="24" viewBox="0 0 24 24" fill="none" xmlns="http://www.w3.org/2000/svg">
<path d="M6.5 5.88893H1M6.5 12H1M6.5 18.1111H1M12 1V23M8.15 23H18.6C20.1401 23 20.9103 23 21.4985 22.7336C22.0159 22.4993 22.4367 22.1253 22.7002 21.6653C23 21.1425 23 20.4579 23 19.0889V4.91115C23 3.54214 23 2.85762 22.7002 2.33473C22.4367 1.87478 22.0159 1.50083 21.4985 1.26647C20.9103 1.00004 20.1401 1.00004 18.6 1.00004H8.15C6.60985 1.00004 5.83978 1.00004 5.25153 1.26647C4.73407 1.50083 4.31338 1.87478 4.04974 2.33473C3.75 2.85762 3.75 3.54214 3.75 4.91115V19.0889C3.75 20.4579 3.75 21.1425 4.04974 21.6653C4.31338 22.1253 4.73407 22.4993 5.25153 22.7336C5.83978 23 6.60985 23 8.15 23Z" stroke="black" stroke-width="2" stroke-linecap="round" stroke-linejoin="round"/>
</svg>
